<svg xmlns="http://www.w3.org/2000/svg" viewBox="0 0 402.3 128.57"><defs><style>.cls-1{fill:#90c35f;}.cls-2{fill:#a5c945;}</style></defs><title>Asset 1</title><g id="Layer_2" data-name="Layer 2"><g id="Layer_1-2" data-name="Layer 1"><path class="cls-1" d="M58,.27l1.09.36,1,.45.73.45,1.27,1.09L63,3.9l.27.73.27.82.18,1,.36,1.82.09,1V11l-.09.82-.18,1.09-.09,1.18-.09.54.09.09.36-.45.45-.73.45-.64.54-.64.45-.64.54-.64.64-.54.45-.64.54-.64L70,7.44l.64-.54,1.72-1.54.91-.73,1.18-.91.64-.54,1.27-.91.73-.45L80.14.64,81.32.27,82.41.09h3.36L87.4.45l.82.27,1.45.73.64.45.64.64.54.64.45.64.36.73.27.82.18.73.18.82.09.82.09.91v1.63l-.09.82V12l-.09.54-.09,1-.09.82-.18.82-.18.64-.18.91-.45,2.36-.18.82L91,21.51l-.18.82-.27.82-.18.73-.54,1.63-.18.73-.18.82-.54,1.63-.18.73L88.22,31l-.18.82-.18.73-.27.82-.18.82-.27.82-.27.73-.18.82-.27.82-.18.82-.18.73-.18.82-.27.82-.27.73-.27.82-.27.73-.54,2.45-.09.82L84,47l-.27,1.18-.18,1.09-.18,1-.18,1.18L83,52.55l-.09.91v1.63l.09.82v.82l.09.82.09.91.09.82.18.73.27.82.45.82.18.54.54.82.54.64.54.54.73.54.64.45L88,66l.27,1.27-.45,1.36L87,69.79l-1.18.82-1.36.18-1.18-.18-.82-.27-.73-.45-.64-.36-.54-.45L80,68.61,79.23,68l-.64-.82-.27-.36-.64-.91-1.09-2L76.33,63l-.18-.54-.27-.91-.09-.82L75.69,60l-.27-2.45V55.91L75.33,55v-.82l.09-.82.18-1.09.18-1.18v-.91L76,48.56l.27-1.18.18-1.27.45-1.91.18-1.09.27-.91.09-.82.18-.82.27-1.09.64-1.91L79,35.94l.27-1.09L79.5,34l.18-.82.18-1.09.27-.91.36-1,.27-.91.36-1L81.5,27,81.77,26,82,25l.27-.73.27-.82.27-.73.54-1.63.18-.82.27-.91.18-.82.18-.64.18-.82.27-.82L85,14.7l.18-.91.18-1.63V10.44L85.22,8.8,85,8l-.36-.73-.54-.64-.73-.54-.73-.27-.91-.09-1.09.18-1.09.27-.82.36-.73.36-1.36.91L76,8.26l-.64.45L74.15,9.89,72.88,11l-.54.45-1.18,1.18-.45.64-.64.54-.91,1.27-.54.64-.45.64-.64.64-1.09,1.27-1,1.45-.27.45-.54.73-.91,1.18-.54.82L62.53,24l-.64.91-.36.82-.27.73L60.72,28l-.18.82L60.26,30,60,31.13l-.82,2.45-.18.73-.27.82-.54,2.45-.09.73-.27.82-.18.82-.27.82-.18.73-.27.82-.36,1.63-.27.91L56,46l-.27,1-.27.91L55.18,49l-.27,1.18-.27.82-.36,1.63-.27.91-.27.73-.36,1.45L53,57.36l-.27.82-.27.73-.54,1.63-.45,1.09-.82,1.18-1.18.82L48,64.08l-1.54.09-1.36-.27L44,63.44l-.27-.73.09-.73.18-.82L44.38,60l.27-1.09.36-.82.27-.82.27-.73.27-.82L46,55l.27-.82.18-.82.27-.82.18-.82L47.1,51l.27-.91L47.74,49,48,47.92l.18-.91.18-.82.18-.73.18-.82.27-.82.27-.73.54-2.45.27-.82.18-.82.27-1.18.27-1.09.27-.91.27-1.18.27-1.09.18-.82.54-1.63.18-.73.36-1.63.27-.82.18-.82.18-.73.91-4.08.18-.73L55.18,20l.27-.73.27-.82.18-.82L56.18,16l.18-.91.18-.82.18-.73.09-.82V10.17l-.09-.82-.18-.82-.27-.82-.45-.64-.64-.64L54.46,6l-.73-.27-.82-.09L52,5.72l-.82.09-1,.45-1,.54-.82.36-.64.45L46.47,8.71l-.73.64-.91.73-.73.64-.73.73-1.45,1.63-.64.64L40.39,15l-.64.73-.36.45-.73,1-.73.91-1.27,1.63-.73.91-.54.73-.64,1-.82,1.18-.64,1-.36.82-.45.73-.36.73-.36,1.09L31.49,29l-.18.82-.36,1.18-.64,1.91L30,34l-.27,1.45-.27,1.18-1,3-.27.91-.27,1.09-.27,1.18-.27.82-.27.73-.27.82-.27,1.18-.27,1.09-.54,1.63-.18.82L25,52.1l-.45,1.45-.27.91-.18.73-.27.82-.27.73-.18.82-.27.73-.27.82-.27.73-.27.82-.45,1.09-.73,1.18-1.18.73-1.45.18-1.54-.18-1.36-.54-.91-.91-.18-1,.09-.82.54-1.63.27-.73.27-.82L16,55.54l.27-.73.18-.82.36-1,.18-.45.27-1,.18-.73.18-.82.27-.82.27-.73.27-.82.36-.73.27-.82.18-.82.18-.91.27-1.09.36-1.18.18-.82.54-1.63.27-.73.27-.82.54-2.45.27-.73.27-.82.18-.82.27-.82.18-.73.18-.82.54-1.63.18-.73.18-.82.27-.82.27-.73L25,24.6,25.59,23l.27-.73.18-.82.27-.82.18-.82.27-.73.54-2.45.36-.82.18-.82.18-.73.54-1.63.27-.73.27-.82.18-.82.09-.54-.18-.09-.45.36-3.18,2.72-1.27.91-.73.45-1.45.73-.73.45-.64.45-.73.36-.82.36-.73.27-.73.45-.73.36-.82.45-1,.54-1,.45-.82.36-.73.45-.82.45-.45.27-.82.64L10,21.6,8.89,22.87l-.45.64-.36.73-.36,1.63-.09.82v1.72l.27.91.36.73.54.73.64.54.82.36.82.27.91.54.45,1.27-.36,1.36-.54.91-.73.36H10l-.73-.09-1-.18-1.18-.27L6,35.58l-.73-.27-.73-.36-.73-.45-.73-.54-.82-.82-.73-.91L1,31.49l-.36-.82-.18-.82L.18,28.77,0,27.59V25.87l.18-.73.18-.82L1,22.42l.54-1L2,20.6l.73-.91.73-.82.73-.54.64-.45.64-.54.64-.45.82-.45,1-.45,1-.54L9.8,15l1-.45,1.91-.64,1.45-.73,2.27-1,1.82-.82,1-.36.82-.36.73-.36,1.54-.82.91-.54.82-.45.73-.54.73-.45.73-.54L27.5,5.81,28,5.35l.64-.54.64-.45L30,3.81l1.63-1.91L32,1.18l.64-.54L33.4.18,34.22,0h.91L36,.09l.91.27.73.45.73.54.27.73-.09.82L38,5.35l-.27.73-.27.82-.27.73L37,8.44l-.27.82-.18.82-.18.73-.54,2.45-.27.73-.09.45.27-.18.64-.73.27-.54.54-.82,1.09-1.27.54-.54.73-.82.82-.82L41,8,42.29,6.9l.54-.54.64-.54L44,5.26l.54-.64.64-.45.64-.54.82-.45.45-.27.82-.54.73-.45.64-.45.82-.27L51.19.73,52.1.45,53,.27l.91-.09h3.18Z"/><path class="cls-1" d="M118.43,58.9,117.16,60l-1.45.91-.73.36-1.45.91-.73.36-1.63.54-.91.27-1.63.27-.54.18-.91.18-.73.09h-.82l-1,.09h-.82L102.19,64l-1-.27-.82-.27-.64-.27-.82-.27-.73-.36-1.45-.91-.64-.54L95,59.81l-.45-.73-.36-.73-.45-.73L93.2,56l-.36-1.63-.18-1.63-.09-.91.09-.82V48.47l.18-.82.18-.73.18-.82.27-1.63.18-.91.18-.82.27-.73.27-.82.36-.82.36-.73.27-.82.45-1.09.54-1.09.45-.73.54-.73.45-.64.54-.64.91-1.45.54-.64L101,30.68l1.27-1.09.64-.45.73-.54.82-.54,1-.64,1-.54.73-.36.91-.36.54-.18,1-.36.54-.18.91-.27.82-.18.91-.09.82-.09h2.09l1.45.18,1.18.18.82.18.82.27.73.36,1.63,1,1,.54L124,28l.45.54.54.64.54.73,1.09,2,.27.82.09.82.09.73.36,1.63v3.18l-.18,1.09-.09,1-.09.91-.54,2.72-.36,1.27-.27.91-.36.91-.36,1-.27.82-.54,1-.82,1.63-.45,1,.09.64.73.09h.54l1-.09.64-.09.82-.18.91-.36.64-.36,1.45-.91.64-.54,1.18-1.18,1.09-1.27.45-.64.45-.73.45-.64.73-1.45.82-1.54.27-.54.54-.82.82-.45,1.09.18.73.82.09,1-.27.82-1.09,2.18-.45.64-.91,1.45-.36.73-.45.64-.54.73-.45.64-.54.54L133,53.91l-.54.54-.64.54-.64.45-.73.54-.64.36-1.45.73-.82.36-.73.18-3.27.36-1-.09-.82-.09-.73-.18-.73-.09-.64.27-.64.45Zm-18-9.89-.09,1.09.09.91.09,1.18.18,1.45.36,1.45.64,1.36.64.91.73.64,1,.45,1.36.36h1.18l.91-.09.91-.18.82-.36.73-.36.82-.45.73-.45.64-.54.73-.54.36-.64v-.54L112.9,54l-.45-.73-.18-.82.18-1.09.36-1.09.64-.54.73-.45.82-.09.82.18.64.18.54-.09.36-.54.27-.73,1.09-3.27.54-2.45.18-1.18.27-1.54.18-3.09-.09-1.45-.36-1.54-.54-1.36-.64-.91-.73-.54-1.09-.45-1.36-.27L113.9,30H113l-.73.18-.82.27-.91.54-.73.45L109,32l-.91.73-.64.54-.64.64-.45.64-.54.64-.45.73-.91,1.27-.45.73-1.82,3.63-.27.82-.18.73-.54,1.63-.18.73-.27.82-.09.82v.82Zm20.06-38.57.64.73.54.54.64.54.73.82.82.91.54.82.36.82-.09.64-.64.64-.73.36-.82.09h-.82l-.91-.09-.73-.36-.73-.45-.54-.64-.64-.82-.45-.36-.64-.82-.54-.54-.73-.09-.64.36-.82.64-.45.36-.91.82-3.63,2.81-1.36.64-1.45.27-1.45-.18-1.27-.64-.54-.82.18-.73.54-.54.73-.54.91-.73.54-.45.91-.73.64-.45.73-.45.91-.64.64-.54.73-.45,1.18-.82,1-.64.73-.45.82-.27.91-.27.64-.09,1-.18.91.09.82.27.73.54.64.73Z"/><path class="cls-1" d="M146.47,63.8l-.73-.09-.82-.18-.82-.27L143,62.81l-1-.54-.82-.45-.91-.73-.82-.82-.64-.54-.54-.64-.54-.54-.36-.73-.45-.82-.45-1.09-.45-1-.27-.82-.27-1.18-.18-1.09-.09-.91-.09-.82V48.47l.09-.73.09-.82.09-.91.18-1.09.27-1.18.27-.82.18-.82.64-1.91.45-1,.45-.82,1.45-2.9.45-.73.91-1.27,1.27-1.36.27-.36.64-.73.64-.54L144,30l.64-.54.64-.45.73-.54.64-.45.73-.36.73-.45.64-.36.73-.36,1-.45,1.91-.54,1-.27.82-.18.82-.09.91-.09h1.54l.82.09,1.18.18,1.36.36,1.18.36.82.27.64.36.63.45.64.54.54.64.54.54.36.82.36,1,.27,1.09.09.91-.09,1.09-.27,1.18-.27.82-.36.73-.45.73-.63.91-.64.82-.54.64-.64.54-.73.36-1.18.18h-1.45L158.18,40l-.91-.64v-.91l.45-.82.63-1,.54-.82.36-.82.18-.73.18-.82v-.73l-.18-.82-.63-.91-.91-.64-.82-.27-.82-.09-.82.09-1.09.18-1.09.36-.82.36-.64.45-.73.54-.64.45-.73.54-.73.82-.64.64-.64.82-.82,1-.54,1-.36.82-.45.73-.36.64-.36.73-.27.82-.27.73-.27.82-.27,1.18-.27,1.09-.18.91-.18,1.09L143,48l-.09.91V50.1l.09,1.45.27,1.27.27.91.91,1.82.54.73.54.54.64.54,1,.45,1.09.45.82.18,1.18.18h2l2.09-.18.82-.18,1-.27.82-.36,1-.54,1-.45,2.18-1.36.91-.73.82-.73,1.27-1.09,1.09-1.27.54-.54,1.09-1.27.91-1.27.54-.82.27-.54.64-1,.54-.91.36-.82.64-1.18.91-.64,1.18.18.73.82v1l-.27.73-.36.73-.36.82-.45.91-.64,1-.73,1-.73,1.09-1.36,2-.54.73-.45.64-.64.64-1.63,1.91-.45.64-.54.54-.63.54-1.27.91-.54.45-.64.45-.82.64-.73.45-.73.36-.73.45-1.09.45-1.09.36-1,.27-1.09.18-1.09.27-1.63.27-2.45.27L147.29,64Z"/><path class="cls-1" d="M227.24,18.15l-.18.54h.18l.45-.36.54-.91.54-.73.54-.82,1.09-1.72.45-.64.45-.73L233,10.89l.91-1.18.54-.73.54-.64.64-.64,1.63-1.54.73-.73.64-.54.63-.45,1.27-1.09.73-.45.82-.54.54-.18.91-.54.54-.27.91-.36.82-.27L248.94,0h.82l.82.09h.91l.91.18,1.18.27,1.09.27.82.27.73.36.63.45.64.54L258,3l.54.64.45.73.36.82.36,1.18L260,7.44l.09.91.18,1.63v2.54L260,15l-.18.82-.09.82-.18.82L259,19.06l-.18.82-.27.73L258,23.05l-.27.82-.36,1.63-.18.73L257,27l-.27.82-.27.73-.54,1.63-.36,1.63-.18.73-.27.82-.18.82-.27.73-.18.82-.27.82-.18.73-.54,1.63-.27.73-.36,1.63-.27.73L252,44.47l-.18.91-.09.82-.18.82-.27,1.09L251,49.28l-.18.82-.18,1-.09.82v.73l-.09.82v4.9l.18.82.27.82.27.73.27.82.36.73.45.73.54.64,1.27.91.73.54.73.82.27,1.27-.36,1.36-.82,1.27-1.18.82L252,71l-1.09-.18-.73-.36-.82-.54-.54-.27-.82-.45-.63-.54-1.09-1.09-.45-.54-.45-.64-.54-.82-.45-.73-.36-.73-.27-.82-.18-.82-.18-.73L243,60.08l-.09-.82V52.82l.18-.91.09-1.09.18-1.18.09-.91.18-1.63.18-.82.27-.82.27-1.18.18-1.09.18-.91.18-1.09.36-1.27.18-.54.27-1,.18-.73.27-.82.18-.82.45-1.54.18-.82.27-.82.36-1,.54-1.81.27-1,.18-.82.91-2.72.36-1.18.18-.64.27-.91.27-.82.18-.82.27-1,.18-.54.27-.91.18-.82.09-.91.18-.82.09-.82.18-.82.09-.91V10.26L252,8.62l-.36-.82-.54-.73-.54-.54-.73-.45-.73-.27-.82-.09h-.91l-2,.45-1.18.54-.91.45-2.9,2.09-.73.45-.64.54-.73.64L236,13.16l-.73,1-1.27,1.36-.54.64-.54.54-.45.64L232,18l-.63,1-.64.91-.54.73-.45.64-.45.73L228,23.78l-.54.91-1.09,2-.36.82-1.18,2.36-.91,1.91-.36.73L223,34.13l-.27.73-.18.82-.18.91-.27.82-.18.73-.54,1.63-.18.82-.18.73-1.09,3.27L219.35,47l-.27.82-.27.73-.27.82L218,51.82l-.36.82-.27.73-.27.82-.18.82-.64,2.18-.27,1-.27.82-.27.73-.27.82-.36.82-.36.73-.73.91-1.18.64-1.45.36h-1.54l-1.36-.36-.91-.82-.18-1,.27-.82.27-.73.27-.82.27-.73.27-.82.27-.73.36-1.63.18-.73.27-1,.18-.54.45-1.09.27-.91.36-1,.36-1.27.27-1.18.27-.82.18-.73.54-1.63.18-.73.54-1.63.27-1.18.27-1.09.27-.82.18-.82.18-.73.27-.82.18-.82.27-.73.27-.82.18-.82.45-1.54.18-.82.27-.73.18-.82.27-.73.27-.82.36-1.63.27-1.09.91-3.18.64-1.91.18-.82.18-.73.18-.82.27-.82.18-.73.27-.82.27-.73.54-1.63.18-.73L222,11l.27-.73.09-.54-.18-.09-.45.36-.54.54-.82.64-.36.27-.73.64L218,13.16l-1.27.91-.73.36-.82.36-.73.45-1.36.82-1.45.73-.82.36-.73.36-.82.45-1,.45-.54.36-1.18.54-1.09.73-1,.64-.73.45-1.27,1.09-.54.64-.45.64-.36.73-.27.82-.18.82-.09.82V28.5l.18.82.45.82.54.64.73.45.82.36.91.36.82.64.45,1.09v1.18l-.45.73-.82.54-1.09.27h-.91l-.82-.09-.91-.27-.54-.09-.91-.36-.73-.27-1.45-.91-.64-.45-.54-.54-1.09-1.27-.45-.64-.36-.73-.27-.82-.18-.73-.18-.82-.09-.82.09-1V26l.09-.91.09-.82.27-.82.73-1.45.91-1.45.63-.91.73-.82.63-.64,1.45-.91.91-.64,1-.54.82-.45,1.09-.45,1-.45.73-.45.91-.36,1.72-.73,1.91-.73,3-1.18.73-.27.82-.45,1.91-1,.91-.45.91-.64L218,8l.82-.64.36-.36,3.18-2.45.73-.73,1-1.18.54-.64.36-.73.64-.64.73-.45.91-.18h.91l.82.09.91.27.82.36.73.54.27.82-.09.82-.18.82-.18.73-.36.82-.18.73-.27.82L230.15,8l-.36,1.36-.27,1.18-1,3-.18.91-.27,1.09-.54,1.63Z"/><path class="cls-1" d="M288,35.4v-.82l-.09-.91-.18-.82-.27-.82L287,31.4l-.63-.54-.82-.18-.82.09-.82.18-.82.27-.82.45-.54.27L280.06,33l-.64.54-.54.45-.73.64-.45.45-.82.73-.36.45-.73.64-.64.82-.36.45-.64.82-.45.64-.54.82-.27.54-.54.82-.45.64-.36.82-.27.73L271,45l-.18.45-.54,1.81L270,48.38l-.27,1.18-.18.82-.18,1-.09.54L269,53l-.18.45-.27.91-.18.82-.18,1-.18.54-.36,2.36-.18,1-.36,1.63-.36.64-.63.45-1.18.36-1.36.27-1.18.18-.91-.18L260.36,63l-.82-.82-.09-1.27.54-3,.09-.91.27-.91.18-.45.27-1.63.27-1.09.18-.54.27-1.09.09-.54.54-1.81.18-.54.27-.91.18-.82.09-.82.27-.91.18-.54.27-1.09.09-.54.27-.91.54-2.45.27-1.09.27-1.18.27-.91.54-1.36.27-1,.18-.82.27-.73.64-1.91.27-1.18.36-1.82.18-.45.27-1,.27-.82.27-.91.09-.45.36-.91.27-.82.27-.91.18-.54.27-.91.27-.82.54-1.36.36-1.09.09-.45.36-1.09.27-.45.36-1.09.09-.45.36-1.09.09-.54.36-1.09.27-.45.36-.91.27-.82.27-.73.36-.73.54-1.63.27-.73.36-.82.45-1.09.64-.91.73-.45.82-.09.91.09,1.63.18.91.18.73.27.64.54.27.73-.18.82-.27.73-.36.73-.27.82-.36.91-.09.45L282,8.44l-.73,1.82-.36,1-.27.91-.27,1.09-.64,1.91-.36,1-.18.45-.36,1.09-.09.45-.36,1.09-.27.45-.27.91-.27.82-.27.91-.09.54-.27.91-.27.82-.36,1-.54,1.81-.27,1-.27.91-.27,1.09-.36,1.09-.36.91-.27.73-.27.82-.09.82.18.18.54-.64.64-.73.73-.91.82-.91.45-.36.64-.73.54-.73.82-.82,1.18-.91.91-.73,1.45-.91.64-.45,1-.54,1.09-.45.91-.27,1.09-.09h2.09l.82.09.91.27,2,1,.64.45.63.54.45.64.36.82.27.73.27.82.18.82v.73l-.09.82v1.63l-.18,1.18-.18,1.09-.18.91-.18.73-.09.82-.36,1.63-.91,2.72-.27,1.18-.27.82-.36,1.63-.27.91-.09.54L292,49.55l-.36,1.36-.18.54-.27,1.09-.36,1.18-.27,1-.09.73-.09,1-.09.54.09.91.36.73.73.27.82.09.73-.18.82-.36.73-.54.82-.64.91-.91.82-.73,1.09-1.27.54-.73.91-1.36.54-.64.45-.82.36-.54.54-1L303,46.74l.54-.91.45-.91.18-.54.45-.91.45-.73.73-.45,1.09.18.82.91.09,1-.36.73-.36.82-.54.91-3.09,5.45-.82,1.63-.54.82-.36.45-1,1.45-.54.64L299,58.63l-.36.45-.63.73-1.27,1.09-.54.64-.73.54-.63.45-1.45.73-1.63.54-.82.18-.91.09-1.18.09L287.41,64l-1.18-.18-.82-.36-.91-.82-.82-1.09-.45-1.09-.36-.82-.09-1.09V56.82l.18-1.36.18-1.18.18-.91.18-.73.27-.82.27-1.09.27-1.18.27-.82L285,47.1l.27-1.18.18-1.09.27-.91.54-2.18.18-.82.27-.91.18-.54.27-.91.45-1.54Z"/><path class="cls-1" d="M325.8,43.56v1l-.27.82-.73,1.45L324,48.19l-.45.82-.36.73-.54.82-.27.54-.45.82-.45.73-.45.64-.54.73-.45.64-.91,1.45L317.45,58l-1.09,1.18-.63.64-.54.64-.63.54-2,1.54-.64.45-.82.36-.82.27-.73.18-1.63.36h-1.54l-1-.09-.73-.27-.82-.27-.73-.45-.64-.54L302,61.9l-.45-.73-.36-.82-.18-.73-.18-.82-.09-.82v-.82l.18-1.63.18-.82.27-.82.36-1.63.27-.73.18-.82.27-.82.27-.73.82-2.45.09-.73.18-.82.27-.82.18-.82.18-.73L305,41.2l.27-1.09.27-1.18.54-1.63.18-.82.18-.64.18-.82.36-.91.27-.73.54-2.45.27-.82.27-1.09.36-1.18L309,27l.36-.73.54-.45.82-.36.73-.09.91.09,1.63.18,1.45.54.45.64v.82l-.18.82-.27,1.09-.27,1.18-.54,1.63-.18.73-.18.82-.27.91-.27,1.09-.91,2.72-.18.82-.36,1.18-.63,1.91-.18.82-.18.73-.18.82-.64,1.54-.18.82-.64,2.27-.54,1.63-.18.82-.27,1.18-.27,1.45-.18,1.54.18,1.36.73,1,1,.27.82-.09.82-.36.63-.45.73-.54,3-3,.54-.64.45-.64.54-.73.91-1.45.54-.64.36-.54.45-.73.54-.82.36-.82.73-1.54,1.09-2.18.45-.73.82-.45,1.18.18ZM311.18,15.7l.45-.73.73-.64.73-.45.91-.27.82-.18h.91l.82.18.73.45.63.54.64.64L319,16l.27.82.09.82v.91l-.27.82-.45.73-.54.73-.63.54-.73.54-.82.36-.91.18-.82-.09-.91-.18-1.45-.91-.54-.64-.45-.73-.18-.82-.09-.82.09-.82.18-.91Z"/><path class="cls-1" d="M352.12,41.39l-.45.64-1.09,1.27-1.27,1.09-.64.45-.82.45-.54.18-.91.54-.54.27-.82.36-.91.27-.82.27-.82.09-.91.18-1,.09-1.09.18-.82.09h-.82l-1.63-.18-1.63-.09-.82-.09-2.45-.54h-.63l-.45.36-.18.64v.82l-.09.91v1.54l.09.91.18.73.54,1.63.91,1.45.54.64.54.54,1.45.91.91.27.82.27.64.09.82.18.82.09h.91l.82-.09,2.36-.45.82-.18.82-.27.73-.27,1.54-.64,1.45-.73,1.27-1,.64-.45.63-.54,1.27-1.18,1.09-1.27.45-.64.54-.73.91-1.27.45-.73.36-.73.45-.73.36-.73.45-.64.36-.73.36-.82.36-.73.45-.73.63-.45h.82l.82.54.45.82-.09.82-.36.82-.45,1-.54,1-.45,1-.54,1-.54.91-.91,1.45-.27.54-.54.82-.91,1.27-.54.64-.54.54-.54.64-.64.73-.27.36-.63.73-.54.64-1.27,1.09-.91.73-.82.73L347,61.9l-2.27,1-.73.27-.82.27-1.18.18-1.09.27-1.91.18-1.18.09-1,.09h-.82l-3.27-.36-.73-.18-.82-.27-.82-.36-.73-.36-1.45-.82-.73-.36-.64-.54-.63-.64-.36-.45-.64-.73-.54-.64-.45-.73-.36-.64-.36-.82-.27-.73-.27-.82L322.8,54l-.18-.73-.18-.82L322.16,50V48.28l.09-.82v-.82l.54-2.45.27-.73.18-.82.27-.82.18-.82.27-.82.36-1,.45-1.09.45-.82.54-1,.63-.91.36-.82.45-.64.54-.64,1.36-1.45,1.36-1.36.73-.64.82-.64.91-.64.82-.64.91-.54.91-.45.82-.36,1.18-.54,1.91-.64,1.63-.36,1.18-.18h2l1.18.18,1.45.27,1.18.27.82.27.82.36.73.36L351,27,352.3,28l.54.64.54.91.45,1.09.27.82.18.82.09.82v1.09l-.09,1.18-.09.91-.27,1.09-.36,1.09-.36.91-.27.45-.45.82ZM341,30.5l-1.27.54-1.09.54L338,32l-1.27,1.09-.82.82-.73.82-.63.73-.64,1-.63.91-.45.82-.54,1-.36,1.09-.36.82-.27.73-.09.64.45.45,1.18.27,1.82.09.91.09H338l.91-.18.82-.18.91-.36.54-.18.91-.45.63-.45.64-.54.63-.64.64-.54.54-.73.45-.64.36-.73.45-.82.54-1.63.18-.91.09-.82-.09-.91-.36-.82-.54-.64-.73-.54-.82-.36-.82-.18-.82-.09-.91.18Zm9.08-20.06.64.73.54.54.64.54.73.82.82.91.54.82.36.82-.09.64-.63.64-.73.36-.82.09h-.82l-.91-.09-.73-.36-.73-.45-.54-.64-.63-.82-.45-.36-.63-.82-.54-.54-.73-.09-.63.36-.82.64-.45.36-.91.82L339,18.15l-1.36.64-1.45.27-1.45-.18-1.27-.64-.54-.82.18-.73.54-.54.73-.54.91-.73.54-.45.91-.73.64-.45.73-.45.91-.64.63-.54.73-.45,1.18-.82,1-.64.73-.45L344,9l.91-.27.63-.09,1-.18.91.09.82.27.73.54.63.73Z"/><path class="cls-1" d="M377.52,31l-.73.36-.63.36-.64.45-.73.54-.64.54-1.45,1-.63.45-.64.54-.63.64-1.09,1.27-.63.64L368,39.12l-.91,1.45-.54.73-1.09,2.18-1,3-.27,1.18L363.82,49l-.36,1.18-.54,2.45-.36,1.18-.36,1.36-.27,1.18-.27.82-.27,1.18-.18,1-.27.91-.09.82-.18.73-.27.73-.54.45-.82.27-.82.09-1.18.09-1.36-.09-1.18-.18-.73-.36L353.2,62l-.09-1,.18-.91.27-1.18.27-1.09L354,57l.27-.82.18-.82.27-.73.27-.82.18-.82.18-.73.18-.82.27-.82.27-.73.36-1.63.18-.73.09-.82.27-.82.18-.82.27-.82.27-1.09L358.1,42l.45-1.63.18-.73.18-.82.27-.82.18-.82.27-.73.18-.82.27-.82.27-1.18.27-1.09.18-.82.54-1.63.18-.73.27-.82.36-1.63.64-.91,1.18-.64,1.45-.18,1.45.18,1.36.45.91.91.18,1.09-.18.91-.18.64-.27.82-.18.82-.27.73-.18.82-.27.82-.18.82-.09.54.09.09.36-.45.54-.64.45-.64,1.09-1.27.64-.54,1.18-1,.63-.54,1.18-1.18,1.81-1.45.73-.45.73-.36.73-.45.73-.27.82-.27,1.18-.27,1.09-.18h2.09l1.45.18,1,.18.82.36.82.45.63.64.45.64.45.73.36.73.27.82.27,1.09.18,1.09v1.72l-.09.82v.82l-.09.73-.18.82-.18.91-.18.54-.27.91-.27,1.18-.36,1.36-.36,1.18-.27.82-.27,1.18-.36,1.54-.36,1.45L386.69,49l-.18.82-.18.64-.18.82-.27.82-.18.73-.54,2.45-.09.82v1.63l.36.73.64.45.82.09.82-.27.82-.36.73-.45.63-.45.73-.54,1.18-1.18.45-.64.54-.73.45-.64.64-.73.45-.64.54-.82.82-1.36.54-.82.27-.45.54-.82.45-.82.73-1.45.36-.82.27-.73.27-.82.45-.73.82-.54,1.18.27.73.91v.91l-.27.82-.36.73-.36.82-.36.73-.45.73-.36.73-.54.82-.27.54-.91,1.63-.18.54-.45.82-.91,1.45-.54.82-.36.45-.54.73-.64.82-.54.64-1,1.09-.54.64-1.27,1.09-.54.54-.73.54-.73.45-1.45.73-.73.27-.82.27-.82.18-.73.09-.91.09h-.82l-.82-.09-.73-.18-.82-.27-.73-.27-.73-.45-.54-.45-.54-.64-.36-.82-.27-.73-.18-.82-.18-.73v-2l.18-1.18.09-.91.27-1.18.82-3,.27-1.54.36-1.54.36-1.45.36-1.18.27-.82.36-1.18L381,41.2l.27-1.45.36-1.18.36-1.63.09-.82.36-1.72.09-.82-.18-.91-.54-.91-.82-.82-.82-.27-.82-.09-.82.09Z"/><path class="cls-2" d="M132.59,96.43,132,95.31,131.61,94l-.14-.56-.07-.63v-.7l.21-1.89.14-.56.56-1.26.49-.7.49-.77.42-.49.49-.49.49-.42.49-.35.56-.35,1.12-.63.56-.28.63-.28.84-.28,1.12-.28.91-.21.7-.14.49-.07.7-.07,1-.07h1.54l.63.07.56.07h.63l.7.07,1.75.28,3.15.35h1.12l.77-.07.63-.07.91-.14.84-.21.63-.21.49-.21.56-.35.56-.42.42-.42.49-.42.42-.42L161,80l.49-.42.49-.35.63-.21h.91l1.12.14,1.12.42.7.56.28.56-.21.84-1.26,3.78-.21.56-.21.63-.14.63-.14.56-.14.63-.21.63-.21.91-.35,1-.35.91-.21.63-.28,1.26-.21.84-.28.84-.21.7-.21.56-.14.63-.21.84-.28,1.26-.21.84-.21.63-.21.56-.28,1.26-.14.56-.14.63v.49l.21.28.56.07h.7l.63-.07,1.75-.28.91-.07.84.21.42.84-.14,1.05-.56.84-.84.42-.63.14-.49.21-.63.14-.63.07-1.19.07-.7.07-.84.21-.7.56-.42.77-.14.63-.07.63-.21.63-.21.56-.21.63-.21.56-.14.63-.21.63-.14.56-.21.63-.28.56-.21.63-.14.56-.28.63-.28.49-.21.56-.28.63-.21.56-.28.63-.56,1.12-.35.49-.42.56-1.05,1.47-.49.42-.91.84-.49.42-.49.35-.63.28-.7.28-.91.35-1,.28-.91.21-.77.14-.42.07-.7.07H143l-1.26-.14-.7-.14-1.68-.42-.63-.21-.56-.28-.63-.28-.7-.49-.63-.56-.49-.56-.56-.63-.49-.77-.84-1.68-.14-.56-.28-1.26V119l.14-1.12.21-.91.28-.63.21-.56.21-.63.42-.77.49-.77.42-.49.42-.42.49-.56.77-.77.56-.42.56-.07.63.07,1,.7.49.42.28.49.07.63-.21.56-.28.56-.35.42-.28.56-.35.63-.28.63-.28,1.26-.07.63-.07.7.14,1.26.21.63.28.56.35.56.35.49.49.49.56.35.56.28.63.21.63.14h.7l.91-.07,1.05-.28.77-.42.56-.42.63-.63.56-.63.42-.56.35-.49.56-1.12.42-1.12.21-.63.35-.84.49-1.47.21-.84.49-1.47.42-1.12.28-1.26.21-.91.14-.91-.14-.7-.49-.28-.63-.07h-.63l-.63-.07h-.63l-.63-.07h-.63l-.63-.07-.56-.28-.35-.49-.07-.56.07-.63.21-.63.42-.49.49-.35.91-.07H150l1.19.07,1.19.14,1.05-.07.7-.28.28-.49.14-.7.14-.42.14-.77.21-.56.14-.63.42-1.26.14-.56L156,98l.14-.63.42-1.26.14-.63.21-.7.07-.42.14-.7.84-2.52.14-.63.21-.7.14-.42.21-.7.14-.77.14-.42.14-.7.21-.63.21-.56.14-.42-.07-.07-.35.28-1,.7-.56.28-.7.28-.42.14-.7.21-.63.14-.63.07h-3.78l-.63-.07-.56-.07-.77-.07-.42-.07-.77-.07-.56-.07-.63-.07-.7-.07h-1.19l-1.33.07-.63.07L142,87l-.63.21-.7.28-.35.21-.63.35-.56.35-.49.35-.42.42-.42.56-.42.77-.28.77-.07.7v.84l.21.84.28.56.42.49.49.42.7.28.63.14h.49l.77.07h1.19l.63-.14.63-.21,1.12-.56.77-.21.91.21.77.77.21.91-.21.7-.42.49-1,.84-.49.28-.63.28-.56.21-.63.21-.63.14-1.19.21-1.26.14h-.63l-1.26-.14-.91-.21-.84-.21-1.26-.42-.49-.35-.56-.35-.49-.35-.42-.42Z"/><path class="cls-2" d="M202.75,114.5l-.14.35-.35.7-.35.49-.28.56-.28.63-.28.56-.7,1.12-.35.49-.35.56-.28.56-.35.56-.42.49-.42.56-.42.49-.77,1-.42.49-.42.42-2,1.68-.56.35-.63.35-.77.35-.84.35-.63.21-.63.14h-.7l-.84-.07-.84-.21-.63-.21-.49-.35-.49-.42-.49-.7-.49-.77-.21-.63-.21-.84-.07-.91v-.7l.07-.91.07-.84-.21-.14-.35.49-.7,1.12-.7,1-.42.49-.35.49-.42.49-.35.49-.49.42-.42.42-.49.42-.49.35-.56.35-.77.49-1,.49-1.12.35-.91.21-1.26.14-.7-.07-.84-.14-.84-.21-.63-.21-.56-.21-.49-.35-1-.84-.35-.49-.35-.56-.42-.77-.42-1.05-.21-.91-.07-.7-.14-.91-.07-1.12V119l.07-.7.07-.91.14-.84.21-.7.21-.84.21-.91.21-.63.28-.56.21-.63,1.68-3.36.35-.56.35-.49.35-.56.7-1,.42-.49.91-1,.28-.28.49-.56,1-.84.63-.63.77-.56,1-.77.56-.35.49-.35.63-.28.84-.35.77-.42.7-.35.84-.28.84-.21.7-.21,1.75-.14.63-.07h.84l1.4.07,1.61.14,1.54.28.63.14.77.21,2.8,1.26.49.42.49.35.49.42.42.49.14.77-.28,1-.77.84-.77.49-.56.07-.56-.21-.56-.42-.63-.35-.56-.35-.49-.21-.56-.28-.63-.28-.56-.14-1.19-.28-.7-.21-.7-.14h-1.4l-.49.07-.7.07-.91.21-1.75.63-.7.35-.7.42-.49.35-.56.35-.49.35-.49.42-.56.49-.28.28-.49.56-.42.49-.35.49-.84,1-.35.49-.35.56-.84,1.68-.35.56-.42,1.26-.28.63-.28.56-.42,1.89-.21.7-.21,1.89v2l.07.7.21.63.28.56.35.56.42.42.63.28.84.14.91-.07.63-.21,1.12-.56,1-.84.42-.42.49-.42.42-.49.35-.49.42-.49.35-.49.77-1,.35-.49,1-1.68.42-.77.49-.91.28-.42.84-1.82.28-.63.14-.49.28-.63.21-.56.21-.63.28-.77.42-1.4.28-.77.21-.7.42-.63.7-.35.63-.14.63.07.63.14,1.12.56.56.35.28.42.07.63-.21.56-.14.63-.21.63-.28,1.26-.21.63-.14.56-.42,1.26-.14.7-.07.42-.21.84-.14.63-.28,1.19-.21.84-.14.7-.14.77-.21,1-.21,1.19-.07,1.05.07.91.35.56.7.35,1.05.07.84-.28.63-.35,1-.7.49-.49.84-.91.84-1,.7-1,.35-.56L198,118l.14-.42,1.12-1.68.28-.56.35-.56,1.4-2.8.63-.35.84.14.56.7.07.7-.28.63Z"/><path class="cls-2" d="M205,97l-.63-1.89-.07-.63v-.63l.14-.63.28-.63.35-.49.42-.49.49-.42.56-.28.63-.14h.63l.63.14.56.35.42.42.28.56.21.63v1.89l-.14.7V96l.14.56.35.49.49.49.49.42.49.56.77.91.49.42.91.91.49.56.28.35.49.56.49.42.42.49.7,1.12.21.63.21.84.21.91-.07.63-.21.63-.28.56-.42.49-.7,1.12-.42.49-.35.56-.35.49-.42.56-.35.56-.42.56-.35.56-1.19,2.38-.21.63-.21.56-.14.63-.14.7-.14.63-.07.63v.7l.28,1.4.35.56.35.63.49.42.56.35.7.14H215l.63-.14.63-.21.63-.28.49-.35,1-.7.56-.42.49-.42.42-.42.42-.56,1.26-1.47,1-1.68.35-.49.35-.63.35-.56.28-.56.35-.63.21-.42.42-.77.28-.56.21-.56.28-.56.63-.35.91.21.63.7v.77l-.21.63-.56,1.19-.28.56-.35.56-.56,1.12-.7,1.12-.35.63-.28.35-.35.63-.7,1.12-.84,1.12-.56.77-.49.7-.84,1-.49.42-.84.84-.56.42-.63.42-1.12.56-.63.28-.56.28-.63.21-.56.14-.7.14h-1.61l-.91-.07-1.4-.28-.56-.21-.7-.35-1.05-.7-.49-.42-.42-.42-.42-.56-.35-.49-.28-.63-.28-.56-.14-.63-.14-.7-.14-.63-.07-.63v-.63l.28-2.52.21-.63.21-.56.28-.63.35-.77.42-.77.35-.63.49-.77.49-.7.35-.63.42-.77.56-.77.42-.56.56-1,.77-1.12.35-.77.21-1.05-.14-.84-.7-1.12-.42-.56L209.47,102l-.42-.49-.56-.42-.56.14-.28.63-.14.63-.21.63-.14.63-.14.56-.21.63-.63,1.68-.21.63-.21.56-.21.63-.35.84-.35.77-.28.63-.35.84-.35.77-.35.7-.35.77-.42.77-.35.56-.42.35h-.63l-.56-.35-.42-.49.07-.56.21-.63.28-.63.21-.56.21-.63.56-1.26.21-.42.28-.7.28-.56.21-.63.28-.63.21-.63.21-.56.56-1.26.14-.63.21-.63.14-.63.28-.63.14-.63.14-.56.14-.63.21-.63.14-.7v-.63l-.14-.56Z"/><path class="cls-2" d="M258.06,128.36l-.63-.14-.63-.21-.56-.28-.56-.42-.84-1-.35-.56-.21-.63-.07-.63-.07-.7.14-1.26.07-.7.14-1.26.28-1.26.14-.49.14-.63.21-.77.14-.56.21-.63.14-.63L256,115l.14-.63.21-.84.28-.91.14-.63.21-.63.14-.63.21-.63.14-.56.28-1.26.07-.63.42-1.89.07-.63.07-.7-.07-.63-.28-.56-.42-.42-.56-.14-.7-.07-.63.14-.56.21L253.44,104l-.56.42-1,.84-.42.49-.49.42-.42.49-.42.56-.35.56-.35.49-.35.56-.42.49-.35.56-.28.56-.28.63-.63,1.12-.21.56L246.5,114l-.14.63-.28.84-.21.84-.21.7-.21.84-.28.84-.21.7-.42,1.68-.07.7-.21.91-.28,1.12-.28.91-.21.63-.14.56-.21.63-.28.56-.42.42-.63.28-.63.14-.7.07-.7-.07h-.7l-.63-.14-.56-.28-.35-.42.07-.63.07-.7.14-.84.21-.84.28-.7.21-.91.35-1.12.28-1.12.21-.91.14-.7.42-1.68.42-1.89.21-.56.21-.63L241,113l.14-.84.21-.7.14-.56.42-1.47.21-.84.21-.7.14-.91.21-1.12v-1.19l-.07-.91-.42-.56-.7-.35-.84-.14-.63.14-.84.35-.7.42-.49.49-1,.84-.63.56-.63.63-.42.49-.35.49-.28.56-.42.63-.28.35-.49.77-.49.7-.42.63-.49.77-.91,1.82-.28.63-.21.63-.14.63-.42,1.26-.14.63-.14.7-.42,1.89-.21.63-.28,1.26-.21.63-.14.7-.21.7-.14.63-.14.49-.14.63-.21.63-.21.7-.49.63-1,.49-1.19.07-1.12-.07-1.12-.42-.7-.7-.14-.84.14-.63.28-.7.14-.42.21-.7.14-.63.21-.91.21-.84.14-.63.42-1.26.14-.56L224,118l.14-.63.21-.56.14-.63.21-.63.21-.91.21-.84.14-.63.42-1.26.21-.91.21-.84.21-.63.14-.63.07-.63.21-.63.14-.63.28-.84.28-.91.28-1.26.14-.56.7-3.15.21-.56.28-.63.49-.35.7-.21.7-.14,1.4.14.7.14.63.28.56.42.28.49-.07.63-.21.7-.21.63-.14.63-.21.63-.14.7-.21.63-.28,1.26-.07.42.28-.14.35-.63.42-.56.35-.56.42-.49.35-.56.42-.49.49-.63.42-.42.35-.42,1-.84,1.12-.77.49-.35.56-.35.63-.28.56-.21.7-.21.7-.07h1.19l.63.07.63.14.56.21.56.28.49.35.42.42.42.49.56,1.12.21.56.21.63.07.63v.63l-.07.84-.07.91-.07.49h.07l.28-.35.42-.56.42-.49.77-1,.49-.56.28-.35.91-1.05.42-.49.49-.35,1.05-.84.56-.42.49-.35.56-.28.63-.28.63-.14.84-.14,1.19-.07.49-.07h.63l.63.14.84.21.84.35.63.42.42.42.35.56.28.56.14.56.21.63.07.63.07.56v1.26l-.07.63-.07.7L264,107l-.21.91-1.05,3.36-.28.91-.21.63-.14.91-.21.77-.21.7-.28.84-.21.84-.21.7-.35,1.68-.14.7-.14.91-.14,1.19.07,1.12.21.84.42.42.7-.07.56-.14.49-.28.56-.28.56-.42.49-.35,1-1,.35-.49.84-1.12.35-.35.42-.56,2.45-3.92.28-.63.63-1.26.21-.35.42-.63.28-.56.63-.35.84.14.56.7v.7l-.28.63-.35.63-.21.56-.28.49-.63,1.26-.49.84-.42.7-.35.56-.35.49-1.05,1.68-.35.49-.7,1.05-.42.56-.77,1-.91.91-.42.49-.42.42-1,.84-.56.35-1.68.84-.63.21-.56.14-.7.07h-1.4Z"/><rect class="cls-2" x="19.87" y="106.47" width="58.78" height="4.14"/><rect class="cls-2" x="322.92" y="106.47" width="58.78" height="4.14"/><path class="cls-1" d="M102.76,78.58l-1-1-.54-1.09-.27-.82L101,74.5l.54-1.27.82-.82.82-.45,1.09-.18h1.45l1.09.27.82.36.82.82.54.91.18.82v.91l-.18.82-.64.91-1.09.91-1.09.54-.82.18-.82.09-.82-.18Z"/></g></g></svg>